<?xml version="1.0" encoding="utf-8"?>
<!-- Generator: Adobe Illustrator 24.2.3, SVG Export Plug-In . SVG Version: 6.00 Build 0)  -->
<svg version="1.1" id="Layer_1" xmlns="http://www.w3.org/2000/svg" xmlns:xlink="http://www.w3.org/1999/xlink" x="0px" y="0px"
	 viewBox="0 0 792 612" style="enable-background:new 0 0 792 612;" xml:space="preserve">
<style type="text/css">
	.st0{fill:#939598;}
	.st1{fill:#006B5C;}
	.st2{fill:#F15B27;}
	.st3{fill:#2CB999;}
</style>
<g>
	<g>
		<g>
			<path class="st0" d="M274.85,505.31h1.5l6.67,14.96h-2.18l-1.98-4.41h-6.35l-1.86,4.41h-2.19L274.85,505.31z M277.98,513.97
				l-2.4-5.39l-2.23,5.39H277.98z"/>
			<path class="st0" d="M288.26,519.57v-2.09c0.54,0.38,1.1,0.69,1.68,0.93c0.57,0.24,1.05,0.35,1.44,0.35c0.4,0,0.75-0.1,1.04-0.3
				c0.29-0.2,0.44-0.44,0.44-0.71c0-0.28-0.09-0.52-0.28-0.71c-0.19-0.19-0.59-0.46-1.22-0.81c-1.25-0.7-2.07-1.29-2.45-1.78
				c-0.39-0.49-0.58-1.03-0.58-1.62c0-0.75,0.29-1.37,0.88-1.84c0.58-0.47,1.34-0.71,2.26-0.71c0.96,0,1.94,0.27,2.95,0.81v1.92
				c-1.15-0.7-2.09-1.04-2.82-1.04c-0.38,0-0.68,0.08-0.91,0.24c-0.23,0.16-0.35,0.37-0.35,0.63c0,0.23,0.1,0.44,0.32,0.65
				c0.21,0.21,0.58,0.46,1.1,0.75l0.69,0.39c1.63,0.92,2.45,1.95,2.45,3.06c0,0.8-0.32,1.46-0.94,1.97
				c-0.63,0.52-1.44,0.77-2.42,0.77c-0.58,0-1.1-0.06-1.56-0.19C289.52,520.13,288.95,519.9,288.26,519.57z"/>
			<path class="st0" d="M309.84,515.55h-6.89c0.05,0.94,0.36,1.68,0.94,2.24c0.58,0.56,1.33,0.83,2.24,0.83
				c1.28,0,2.46-0.4,3.54-1.19v1.9c-0.6,0.4-1.19,0.68-1.77,0.85c-0.59,0.17-1.27,0.25-2.06,0.25c-1.08,0-1.95-0.23-2.62-0.67
				c-0.67-0.45-1.2-1.05-1.6-1.81c-0.4-0.76-0.6-1.63-0.6-2.62c0-1.49,0.42-2.7,1.27-3.64c0.84-0.93,1.94-1.4,3.29-1.4
				c1.3,0,2.33,0.46,3.11,1.37c0.77,0.91,1.16,2.13,1.16,3.65V515.55z M302.99,514.38h4.93c-0.05-0.77-0.28-1.37-0.69-1.79
				c-0.41-0.42-0.96-0.63-1.66-0.63c-0.7,0-1.27,0.21-1.71,0.63C303.42,513.02,303.13,513.61,302.99,514.38z"/>
			<path class="st0" d="M315.8,513.87c0-1.05,0.38-1.87,1.14-2.48c0.76-0.61,1.81-0.91,3.12-0.91h4.04v1.51h-1.98
				c0.38,0.39,0.65,0.75,0.8,1.06c0.15,0.32,0.22,0.68,0.22,1.1c0,0.51-0.15,1.01-0.44,1.51c-0.29,0.49-0.66,0.87-1.12,1.14
				c-0.46,0.26-1.21,0.47-2.25,0.63c-0.73,0.11-1.1,0.36-1.1,0.76c0,0.23,0.14,0.41,0.41,0.56c0.27,0.15,0.77,0.3,1.48,0.45
				c1.2,0.26,1.97,0.47,2.32,0.62c0.35,0.15,0.66,0.36,0.93,0.64c0.47,0.47,0.7,1.06,0.7,1.77c0,0.93-0.41,1.67-1.24,2.23
				c-0.83,0.55-1.93,0.83-3.31,0.83c-1.4,0-2.52-0.28-3.35-0.84c-0.83-0.56-1.25-1.3-1.25-2.24c0-1.33,0.82-2.18,2.46-2.57
				c-0.65-0.42-0.98-0.83-0.98-1.25c0-0.31,0.14-0.59,0.42-0.85c0.28-0.26,0.66-0.44,1.13-0.57
				C316.52,516.32,315.8,515.29,315.8,513.87z M318.98,520.73c-0.65,0-1.19,0.14-1.6,0.42s-0.62,0.63-0.62,1.06
				c0,1.01,0.91,1.51,2.73,1.51c0.86,0,1.52-0.13,2-0.38c0.47-0.25,0.71-0.61,0.71-1.07c0-0.46-0.3-0.82-0.89-1.11
				C320.7,520.87,319.93,520.73,318.98,520.73z M319.44,512.16c-0.53,0-0.97,0.18-1.34,0.53c-0.37,0.35-0.56,0.78-0.56,1.28
				c0,0.51,0.18,0.92,0.54,1.25c0.36,0.33,0.82,0.5,1.37,0.5c0.55,0,1-0.17,1.37-0.51c0.37-0.34,0.55-0.76,0.55-1.26
				c0-0.51-0.19-0.94-0.56-1.28S319.99,512.16,319.44,512.16z"/>
			<path class="st0" d="M336.2,520.27v-1.25c-0.41,0.45-0.88,0.8-1.41,1.05c-0.53,0.25-1.06,0.38-1.58,0.38
				c-0.62,0-1.19-0.15-1.71-0.46c-0.52-0.31-0.92-0.73-1.18-1.26c-0.27-0.53-0.4-1.41-0.4-2.63v-5.61h1.94v5.58
				c0,1.03,0.15,1.75,0.44,2.15c0.29,0.4,0.81,0.61,1.55,0.61c0.92,0,1.71-0.45,2.35-1.35v-7h1.94v9.79H336.2z"/>
			<path class="st0" d="M347.31,510.48v2.25l0.11-0.17c0.94-1.51,1.87-2.27,2.81-2.27c0.73,0,1.49,0.37,2.29,1.11l-1.02,1.71
				c-0.68-0.64-1.3-0.96-1.87-0.96c-0.63,0-1.17,0.3-1.62,0.9c-0.46,0.59-0.69,1.3-0.69,2.12v5.12h-1.95v-9.79H347.31z"/>
			<path class="st0" d="M364.38,514.38v4.16c0,0.33,0.11,0.5,0.34,0.5c0.23,0,0.6-0.18,1.1-0.52v1.18c-0.44,0.28-0.8,0.48-1.06,0.58
				c-0.27,0.1-0.54,0.15-0.83,0.15c-0.83,0-1.32-0.33-1.47-0.98c-0.82,0.64-1.7,0.96-2.63,0.96c-0.68,0-1.25-0.23-1.7-0.68
				c-0.45-0.45-0.68-1.02-0.68-1.7c0-0.62,0.22-1.17,0.66-1.66c0.44-0.48,1.08-0.87,1.89-1.15l2.48-0.85v-0.52
				c0-1.18-0.59-1.77-1.77-1.77c-1.06,0-2.09,0.55-3.09,1.64v-2.12c0.75-0.89,1.83-1.33,3.25-1.33c1.06,0,1.91,0.28,2.54,0.83
				c0.22,0.18,0.4,0.41,0.58,0.71c0.17,0.29,0.28,0.59,0.32,0.88C364.36,513,364.38,513.56,364.38,514.38z M362.48,518.34v-2.91
				l-1.3,0.5c-0.66,0.26-1.13,0.53-1.4,0.79c-0.27,0.27-0.41,0.6-0.41,1c0,0.4,0.13,0.73,0.39,0.99c0.26,0.26,0.59,0.38,1.01,0.38
				C361.38,519.09,361.95,518.84,362.48,518.34z"/>
			<path class="st0" d="M373.83,510.48v1.24c0.87-0.96,1.85-1.44,2.95-1.44c0.61,0,1.18,0.16,1.7,0.48c0.53,0.32,0.92,0.75,1.2,1.3
				c0.27,0.55,0.41,1.42,0.41,2.61v5.6h-1.94v-5.58c0-1-0.15-1.71-0.46-2.14c-0.3-0.43-0.82-0.65-1.53-0.65
				c-0.92,0-1.69,0.46-2.33,1.37v7h-1.98v-9.79H373.83z"/>
			<path class="st0" d="M393.7,505.4h1.95v14.87h-4.14c-1.45,0-2.61-0.46-3.47-1.37c-0.86-0.92-1.29-2.14-1.29-3.68
				c0-1.44,0.45-2.63,1.36-3.56c0.9-0.93,2.06-1.4,3.47-1.4c0.65,0,1.36,0.14,2.13,0.42V505.4z M393.7,518.61v-6.21
				c-0.6-0.31-1.21-0.46-1.83-0.46c-0.97,0-1.73,0.32-2.31,0.95c-0.57,0.63-0.86,1.48-0.86,2.56c0,1.01,0.25,1.78,0.75,2.33
				c0.3,0.33,0.62,0.55,0.95,0.66c0.33,0.11,0.93,0.17,1.8,0.17H393.7z"/>
			<path class="st0" d="M407.32,510.46c1.49,0,2.73,0.48,3.72,1.44c0.99,0.96,1.48,2.17,1.48,3.63c0,1.41-0.5,2.59-1.5,3.52
				c-1,0.94-2.26,1.4-3.78,1.4c-1.47,0-2.7-0.47-3.68-1.42c-0.99-0.95-1.48-2.13-1.48-3.55c0-1.43,0.5-2.63,1.49-3.58
				C404.57,510.93,405.82,510.46,407.32,510.46z M407.22,512.2c-0.93,0-1.69,0.3-2.29,0.92c-0.59,0.61-0.89,1.39-0.89,2.33
				c0,0.94,0.31,1.7,0.92,2.3c0.61,0.59,1.39,0.89,2.35,0.89c0.95,0,1.73-0.3,2.34-0.9c0.61-0.6,0.91-1.37,0.91-2.31
				c0-0.93-0.32-1.7-0.95-2.31C408.97,512.51,408.17,512.2,407.22,512.2z"/>
			<path class="st0" d="M437.8,515.55h-6.89c0.05,0.94,0.37,1.68,0.94,2.24c0.58,0.56,1.33,0.83,2.24,0.83
				c1.28,0,2.45-0.4,3.53-1.19v1.9c-0.59,0.4-1.19,0.68-1.77,0.85c-0.59,0.17-1.27,0.25-2.06,0.25c-1.08,0-1.95-0.23-2.62-0.67
				c-0.67-0.45-1.2-1.05-1.6-1.81c-0.4-0.76-0.6-1.63-0.6-2.62c0-1.49,0.42-2.7,1.27-3.64c0.85-0.93,1.94-1.4,3.29-1.4
				c1.3,0,2.34,0.46,3.11,1.37c0.77,0.91,1.16,2.13,1.16,3.65V515.55z M430.95,514.38h4.93c-0.05-0.77-0.28-1.37-0.69-1.79
				c-0.41-0.42-0.97-0.63-1.66-0.63c-0.7,0-1.27,0.21-1.71,0.63C431.38,513.02,431.09,513.61,430.95,514.38z"/>
			<path class="st0" d="M444.3,505.4h1.94v14.87h-1.94V505.4z"/>
			<path class="st0" d="M464.04,510.48v-0.59c0-1.57,0.33-2.75,1.01-3.52c0.67-0.77,1.47-1.16,2.41-1.16c0.4,0,0.88,0.06,1.44,0.19
				v1.89c-0.32-0.11-0.61-0.17-0.9-0.17c-0.76,0-1.29,0.2-1.58,0.61c-0.29,0.4-0.44,1.13-0.44,2.16v0.59h1.75v1.75h-1.75v8.05h-1.94
				v-8.05h-1.4v-1.75H464.04z"/>
			<path class="st0" d="M479.87,520.27v-1.25c-0.41,0.45-0.88,0.8-1.41,1.05c-0.53,0.25-1.05,0.38-1.58,0.38
				c-0.62,0-1.19-0.15-1.71-0.46c-0.52-0.31-0.92-0.73-1.18-1.26c-0.27-0.53-0.4-1.41-0.4-2.63v-5.61h1.94v5.58
				c0,1.03,0.15,1.75,0.44,2.15c0.29,0.4,0.81,0.61,1.55,0.61c0.92,0,1.71-0.45,2.35-1.35v-7h1.94v9.79H479.87z"/>
			<path class="st0" d="M487.52,512.03l3.64-3.58v2.02h3.1v1.75h-3.1v4.79c0,1.12,0.47,1.68,1.39,1.68c0.7,0,1.43-0.23,2.21-0.7
				v1.81c-0.75,0.42-1.56,0.63-2.44,0.63c-0.89,0-1.62-0.26-2.21-0.78c-0.18-0.16-0.34-0.33-0.46-0.53c-0.12-0.2-0.22-0.45-0.3-0.77
				c-0.08-0.32-0.12-0.92-0.12-1.81v-4.34h-1.7V512.03z"/>
			<path class="st0" d="M506.76,520.27v-1.25c-0.41,0.45-0.88,0.8-1.41,1.05c-0.53,0.25-1.06,0.38-1.58,0.38
				c-0.62,0-1.19-0.15-1.71-0.46c-0.52-0.31-0.92-0.73-1.18-1.26s-0.4-1.41-0.4-2.63v-5.61h1.94v5.58c0,1.03,0.15,1.75,0.44,2.15
				c0.29,0.4,0.81,0.61,1.55,0.61c0.92,0,1.71-0.45,2.35-1.35v-7h1.94v9.79H506.76z"/>
			<path class="st0" d="M517.86,510.48v2.25l0.11-0.17c0.94-1.51,1.87-2.27,2.81-2.27c0.73,0,1.5,0.37,2.29,1.11l-1.02,1.71
				c-0.67-0.64-1.3-0.96-1.87-0.96c-0.62,0-1.16,0.3-1.62,0.9c-0.46,0.59-0.69,1.3-0.69,2.12v5.12h-1.95v-9.79H517.86z"/>
			<path class="st0" d="M532.92,510.46c1.49,0,2.73,0.48,3.72,1.44c0.99,0.96,1.48,2.17,1.48,3.63c0,1.41-0.5,2.59-1.5,3.52
				c-1,0.94-2.26,1.4-3.78,1.4c-1.47,0-2.7-0.47-3.68-1.42c-0.99-0.95-1.48-2.13-1.48-3.55c0-1.43,0.5-2.63,1.5-3.58
				C530.17,510.93,531.42,510.46,532.92,510.46z M532.82,512.2c-0.93,0-1.7,0.3-2.29,0.92c-0.6,0.61-0.9,1.39-0.9,2.33
				c0,0.94,0.3,1.7,0.92,2.3c0.61,0.59,1.39,0.89,2.35,0.89c0.95,0,1.73-0.3,2.34-0.9c0.61-0.6,0.91-1.37,0.91-2.31
				c0-0.93-0.32-1.7-0.95-2.31C534.57,512.51,533.77,512.2,532.82,512.2z"/>
			<path class="st0" d="M544.98,517.9c0.36,0,0.67,0.12,0.93,0.37c0.25,0.25,0.38,0.55,0.38,0.91c0,0.35-0.13,0.65-0.38,0.9
				c-0.25,0.24-0.56,0.36-0.93,0.36c-0.36,0-0.67-0.12-0.91-0.36c-0.25-0.24-0.37-0.54-0.37-0.9c0-0.36,0.13-0.67,0.37-0.91
				C544.31,518.02,544.62,517.9,544.98,517.9z"/>
		</g>
	</g>
	<g>
		<path class="st0" d="M63.16,360.33c0-3.5,1.82-5.32,5.32-5.32h23.93c17.35,0,30.37,8.68,30.37,29.11v39.74
			c0,20.43-13.01,29.1-30.37,29.1H68.48c-3.5,0-5.32-1.82-5.32-5.32V360.33z M91.99,370.27H79.26v67.45h12.73
			c7.84,0,14.69-2.52,14.69-15.53V385.8C106.68,372.78,99.83,370.27,91.99,370.27z"/>
		<path class="st0" d="M214.43,429.73c0,16.51-10.49,24.77-24.49,24.77c-14.13,0-24.49-8.26-24.49-22.25v-0.28
			c0-13.99,8.68-22.25,24.49-22.25h9.37v-6.3c0-8.96-4.2-11.61-9.37-11.61c-5.32,0-7.98,3.36-7.98,7.41c0,2.8-1.54,4.34-4.34,4.34
			h-5.74c-3.36,0-5.04-1.68-5.04-5.04c0-11.89,8.96-20.85,23.09-20.85c13.99,0,24.49,8.26,24.49,24.77V429.73z M199.32,428.76v-7.69
			h-9.37c-5.18,0-9.37,2.66-9.37,9.65c0,7,4.2,9.65,9.37,9.65C195.12,440.37,199.32,437.71,199.32,428.76z"/>
		<path class="st0" d="M279.65,453.52c-13.29,0-20.71-5.59-20.71-20.71v-66.61c0-3.36,1.68-5.04,5.04-5.04h5.04
			c3.36,0,5.04,1.68,5.04,5.04v13.02h12.03c3.36,0,5.04,1.68,5.04,5.04v4.06c0,3.36-1.68,5.04-5.04,5.04h-12.03v38.34
			c0,5.74,1.96,7.7,7.7,7.7c1.4,0,2.66-0.14,4.34-0.42c3.36-0.56,5.04,1.54,5.04,4.9v4.06c0,3.36-1.68,4.48-4.34,5.04
			C283.98,453.52,281.74,453.52,279.65,453.52z"/>
		<path class="st0" d="M378.86,429.73c0,16.51-10.49,24.77-24.49,24.77c-14.13,0-24.49-8.26-24.49-22.25v-0.28
			c0-13.99,8.68-22.25,24.49-22.25h9.37v-6.3c0-8.96-4.2-11.61-9.37-11.61c-5.32,0-7.98,3.36-7.98,7.41c0,2.8-1.54,4.34-4.34,4.34
			h-5.74c-3.36,0-5.04-1.68-5.04-5.04c0-11.89,8.96-20.85,23.09-20.85c13.99,0,24.49,8.26,24.49,24.77V429.73z M363.75,428.76v-7.69
			h-9.37c-5.18,0-9.37,2.66-9.37,9.65c0,7,4.2,9.65,9.37,9.65C359.55,440.37,363.75,437.71,363.75,428.76z"/>
		<path class="st0" d="M472.34,431.41c0,15.67-8.54,23.09-20.01,23.09c-5.74,0-10.49-1.82-13.85-5.88v22.95
			c0,3.36-1.68,5.04-5.04,5.04h-5.04c-3.36,0-5.04-1.68-5.04-5.04v-69.13c0-16.79,10.49-24.77,24.49-24.77
			c13.99,0,24.49,7.98,24.49,24.77V431.41z M457.22,403.43c0-8.96-4.2-11.61-9.37-11.61c-5.18,0-9.38,2.66-9.38,11.61v25.33
			c0,8.96,4.2,11.61,9.38,11.61c5.17,0,9.37-2.66,9.37-11.61V403.43z"/>
		<path class="st0" d="M531.81,401.47v46.46c0,3.36-1.68,5.04-5.04,5.04h-5.04c-3.36,0-5.04-1.68-5.04-5.04v-47.58
			c0-15.95,8.12-21.83,22.11-21.83c2.1,0,4.34,0,7.14,0.56c2.66,0.56,4.34,1.68,4.34,5.04v4.06c0,3.36-1.68,5.45-5.04,4.9
			c-1.68-0.28-2.94-0.42-4.34-0.42C534.47,392.65,531.81,394.89,531.81,401.47z"/>
		<path class="st0" d="M612.27,454.5c-13.99,0-24.49-7.98-24.49-24.77v-27.29c0-16.51,10.5-24.77,24.49-24.77
			c13.99,0,24.49,8.26,24.49,24.77v27.29C636.76,446.53,626.26,454.5,612.27,454.5z M612.27,391.81c-5.17,0-9.38,2.66-9.38,11.61
			v25.33c0,8.96,4.2,11.61,9.38,11.61c5.18,0,9.37-2.66,9.37-11.61v-25.33C621.64,394.47,617.45,391.81,612.27,391.81z"/>
		<path class="st0" d="M679.86,400.77c0-15.67,8.54-23.09,20.01-23.09c5.6,0,10.5,1.82,13.85,5.88v-24.91
			c0-3.36,1.68-5.04,5.04-5.04h5.04c3.35,0,5.04,1.68,5.04,5.04v71.08c0,16.79-10.49,24.77-24.49,24.77
			c-13.99,0-24.49-7.98-24.49-24.77V400.77z M694.97,428.76c0,8.96,4.2,11.61,9.38,11.61c5.18,0,9.37-2.66,9.37-11.61v-25.33
			c0-8.96-4.2-11.61-9.37-11.61c-5.18,0-9.38,2.66-9.38,11.61V428.76z"/>
	</g>
	<path class="st1" d="M396.3,241.16c-20.47,0-37.06-16.59-37.06-37.06c0-20.47,16.59-37.06,37.06-37.06v-27.59
		c-35.7,0-64.64,28.94-64.64,64.64s28.94,64.64,64.64,64.64V241.16z"/>
	
		<rect x="368.81" y="86.73" transform="matrix(-1 -9.466840e-11 9.466840e-11 -1 765.1071 253.4487)" class="st1" width="27.5" height="79.99"/>
	<g>
		<path class="st0" d="M421.73,169.09c20.47,0,37.06,16.59,37.06,37.06c0,20.47-16.59,37.06-37.06,37.06v27.59
			c35.7,0,64.64-28.94,64.64-64.64s-28.94-64.64-64.64-64.64V169.09z"/>
		<rect x="421.73" y="243.53" class="st0" width="27.5" height="79.99"/>
	</g>
	<circle class="st2" cx="408.83" cy="204.41" r="18.58"/>
	<path class="st3" d="M440.55,200.48c0,0-24.74-5.18-36.63,21.77C403.92,222.25,429.24,227.66,440.55,200.48z"/>
</g>
</svg>
